<svg width="160" height="48" viewBox="0 0 160 48" fill="none" xmlns="http://www.w3.org/2000/svg">
<path d="M154 46.4801H6.00006C3.04006 46.4801 0.560059 44.0801 0.560059 41.0401V6.00006C0.560059 3.04006 2.96006 0.560059 6.00006 0.560059H153.92C156.88 0.560059 159.36 2.96006 159.36 6.00006V41.0401C159.44 44.0801 156.96 46.4801 154 46.4801Z" fill="#121212"/>
<path d="M80.72 25.7602C77.92 25.7602 75.68 27.8402 75.68 30.8002C75.68 33.6802 77.92 35.8402 80.72 35.8402C83.52 35.8402 85.76 33.6802 85.76 30.8002C85.76 27.8402 83.52 25.7602 80.72 25.7602ZM80.72 33.8402C79.2 33.8402 77.92 32.5602 77.92 30.8002C77.92 28.9602 79.2 27.7602 80.72 27.7602C82.24 27.7602 83.52 28.9602 83.52 30.8002C83.52 32.5602 82.24 33.8402 80.72 33.8402ZM69.68 25.7602C66.88 25.7602 64.64 27.8402 64.64 30.8002C64.64 33.6802 66.88 35.8402 69.68 35.8402C72.48 35.8402 74.72 33.6802 74.72 30.8002C74.72 27.8402 72.48 25.7602 69.68 25.7602ZM69.68 33.8402C68.16 33.8402 66.88 32.5602 66.88 30.8002C66.88 28.9602 68.16 27.7602 69.68 27.7602C71.2 27.7602 72.48 28.9602 72.48 30.8002C72.56 32.5602 71.2 33.8402 69.68 33.8402ZM56.56 27.2802V29.4402H61.68C61.52 30.6402 61.12 31.5202 60.48 32.1602C59.76 32.8802 58.56 33.7602 56.56 33.7602C53.44 33.7602 50.96 31.2002 50.96 28.0802C50.96 24.9602 53.44 22.4002 56.56 22.4002C58.24 22.4002 59.52 23.0402 60.4 23.9202L61.92 22.4002C60.64 21.2002 58.96 20.2402 56.56 20.2402C52.24 20.2402 48.64 23.7602 48.64 28.0802C48.64 32.4002 52.24 35.9202 56.56 35.9202C58.88 35.9202 60.64 35.1202 62 33.7602C63.44 32.3202 63.84 30.4002 63.84 28.8002C63.84 28.3202 63.84 27.8402 63.76 27.4402H56.56V27.2802ZM110.16 28.9602C109.76 27.8402 108.48 25.7602 105.84 25.7602C103.28 25.7602 101.12 27.7602 101.12 30.8002C101.12 33.6002 103.28 35.8402 106.08 35.8402C108.4 35.8402 109.68 34.4002 110.24 33.6002L108.56 32.4802C108 33.2802 107.2 33.8402 106.08 33.8402C104.96 33.8402 104.16 33.3602 103.68 32.3202L110.4 29.5202L110.16 28.9602ZM103.28 30.6402C103.2 28.7202 104.8 27.6802 105.92 27.6802C106.8 27.6802 107.52 28.0802 107.76 28.7202L103.28 30.6402ZM97.84 35.5202H100.08V20.7202H97.84V35.5202ZM94.24 26.8802C93.68 26.3202 92.72 25.7602 91.52 25.7602C89.04 25.7602 86.72 28.0002 86.72 30.8002C86.72 33.6002 89.04 35.8402 91.52 35.8402C92.72 35.8402 93.68 35.2802 94.16 34.7202H94.24V35.4402C94.24 37.3602 93.2 38.4002 91.52 38.4002C90.16 38.4002 89.36 37.4402 88.96 36.6402L87.04 37.4402C87.6 38.8002 89.04 40.4002 91.52 40.4002C94.08 40.4002 96.32 38.8802 96.32 35.2002V26.0002H94.24V26.8802ZM91.68 33.8402C90.16 33.8402 88.88 32.5602 88.88 30.8002C88.88 29.0402 90.16 27.7602 91.68 27.7602C93.2 27.7602 94.4 29.0402 94.4 30.8002C94.4 32.5602 93.2 33.8402 91.68 33.8402ZM120.56 20.7202H115.28V35.5202H117.52V29.9202H120.64C123.12 29.9202 125.52 28.1602 125.52 25.3602C125.52 22.5602 122.96 20.7202 120.56 20.7202ZM120.56 27.8402H117.44V22.7202H120.56C122.24 22.7202 123.12 24.0802 123.12 25.2802C123.2 26.4002 122.24 27.8402 120.56 27.8402ZM134.24 25.6802C132.64 25.6802 130.96 26.4002 130.32 27.9202L132.24 28.7202C132.64 27.9202 133.44 27.6002 134.24 27.6002C135.36 27.6002 136.56 28.3202 136.56 29.5202V29.6802C136.16 29.4402 135.28 29.1202 134.24 29.1202C132.16 29.1202 130 30.3202 130 32.4802C130 34.4802 131.76 35.7602 133.68 35.7602C135.2 35.7602 136 35.1202 136.48 34.3202H136.56V35.4402H138.72V29.7602C138.72 27.2002 136.72 25.6802 134.24 25.6802ZM133.92 33.8402C133.2 33.8402 132.16 33.4402 132.16 32.5602C132.16 31.4402 133.44 30.9602 134.48 30.9602C135.44 30.9602 135.92 31.2002 136.48 31.4402C136.4 32.8002 135.2 33.8402 133.92 33.8402ZM146.48 26.0002L143.92 32.4002H143.84L141.2 26.0002H138.8L142.72 34.9602L140.48 39.9202H142.8L148.88 26.0002H146.48ZM126.56 35.5202H128.8V20.7202H126.56V35.5202Z" fill="white"/>
<path d="M12.48 8.96037C12.16 9.36037 11.92 9.92037 11.92 10.6404V36.8004C11.92 37.5204 12.16 38.0804 12.48 38.4804L12.56 38.5604L27.2 23.8404V23.6804V23.5204L12.56 8.88037L12.48 8.96037Z" fill="#70C8F2"/>
<path d="M32.0801 28.7201L27.2001 23.8401V23.6801V23.5201L32.0801 18.6401L32.1601 18.7201L37.9201 22.0001C39.6001 22.9601 39.6001 24.4801 37.9201 25.4401L32.1601 28.7201H32.0801Z" fill="url(#paint0_linear_490_1408)"/>
<path d="M32.1601 28.6402L27.2001 23.6802L12.4801 38.4002C13.0401 38.9602 13.9201 39.0402 14.9601 38.4802L32.1601 28.6402Z" fill="url(#paint1_linear_490_1408)"/>
<path d="M32.1601 18.6402L14.9601 8.88018C13.9201 8.32018 13.0401 8.40018 12.4801 8.96018L27.2001 23.6802L32.1601 18.6402Z" fill="url(#paint2_linear_490_1408)"/>
<path d="M54.32 9.76016C53.84 9.36016 53.28 9.12016 52.64 9.12016C51.2 9.12016 50.08 10.3202 50.08 11.7602C50.08 13.2002 51.2 14.4002 52.64 14.4002C53.92 14.4002 54.8 13.6802 54.88 12.5602H52.88V11.7602H56C56 14.2402 54.72 15.3602 52.72 15.3602C50.72 15.3602 49.2 13.7602 49.2 11.7602C49.2 9.76016 50.72 8.16016 52.72 8.16016C53.6 8.16016 54.48 8.48016 55.04 9.04016L54.32 9.76016Z" fill="white"/>
<path d="M61.3599 8.32031V9.20031H58.1599V11.4403H60.9599V12.3203H58.1599V14.4003H61.44V15.2803H57.2V8.32031H61.3599Z" fill="white"/>
<path d="M67.4399 8.32031V9.20031H65.3599V15.2803H64.3999V9.20031H62.3199V8.32031H67.4399Z" fill="white"/>
<path d="M71.9999 8.32031V15.2803H71.0399V8.32031H71.9999Z" fill="white"/>
<path d="M78.3999 8.32031V9.20031H76.3199V15.2803H75.3599V9.20031H73.2799V8.32031H78.3999Z" fill="white"/>
<path d="M84.9599 8.24023C86.9599 8.24023 88.4799 9.84023 88.4799 11.8402C88.4799 13.8402 86.9599 15.4402 84.9599 15.4402C82.9599 15.4402 81.4399 13.8402 81.4399 11.8402C81.4399 9.84023 83.0399 8.24023 84.9599 8.24023ZM84.9599 14.4802C86.3999 14.4802 87.5199 13.2802 87.5199 11.8402C87.5199 10.4002 86.3999 9.20023 84.9599 9.20023C83.5199 9.20023 82.3999 10.4002 82.3999 11.8402C82.3999 13.2802 83.5199 14.4802 84.9599 14.4802Z" fill="white"/>
<path d="M94.0799 15.2803L90.8799 10.0003V15.2803H89.9199V8.32031H90.8799L93.9999 13.5203V8.32031H94.9599V15.2803H94.0799Z" fill="white"/>
<defs>
<linearGradient id="paint0_linear_490_1408" x1="36.9022" y1="23.657" x2="8.31175" y2="23.657" gradientUnits="userSpaceOnUse">
<stop stop-color="#FFDF00"/>
<stop offset="0.415" stop-color="#F9BB00"/>
<stop offset="0.7778" stop-color="#F5A300"/>
<stop offset="1" stop-color="#F49A00"/>
</linearGradient>
<linearGradient id="paint1_linear_490_1408" x1="29.4826" y1="26.3684" x2="2.59203" y2="53.259" gradientUnits="userSpaceOnUse">
<stop stop-color="#E6383C"/>
<stop offset="1" stop-color="#C70E66"/>
</linearGradient>
<linearGradient id="paint2_linear_490_1408" x1="2.47218" y1="-6.06566" x2="24.4276" y2="15.8898" gradientUnits="userSpaceOnUse">
<stop stop-color="#229866"/>
<stop offset="0.1459" stop-color="#339F64"/>
<stop offset="0.5197" stop-color="#5BAE5E"/>
<stop offset="0.8174" stop-color="#73B85B"/>
<stop offset="1" stop-color="#7CBB5A"/>
</linearGradient>
</defs>
</svg>
