<svg width="160" height="48" viewBox="0 0 160 48" fill="none" xmlns="http://www.w3.org/2000/svg">
<path d="M154.075 46.503H6.00284C3.04139 46.503 0.560181 44.1019 0.560181 41.0604V6.00321C0.560181 3.04176 2.96136 0.560547 6.00284 0.560547H153.995C156.957 0.560547 159.438 2.96172 159.438 6.00321V41.0604C159.518 44.1019 157.037 46.503 154.075 46.503Z" fill="#121212"/>
<path d="M53.3061 13.3669L52.6658 15.528H51.2251L53.7063 7.76416H55.5472L58.0284 15.528H56.5077L55.7873 13.3669H53.3061ZM55.5472 12.3264L54.9069 10.4055C54.7468 9.92522 54.6668 9.44498 54.5067 8.96475C54.4267 9.44498 54.2666 9.92522 54.1065 10.4055L53.5462 12.3264H55.5472Z" fill="white"/>
<path d="M60.1094 10.0054L60.9898 12.8067C61.1499 13.287 61.2299 13.7672 61.39 14.2474C61.47 13.7672 61.6301 13.367 61.7902 12.8067L62.6706 10.0054H64.1914L62.0303 15.6081H60.6696L58.5886 10.0054H60.1094Z" fill="white"/>
<path d="M69.7943 14.2474C69.7943 14.7276 69.7943 15.2079 69.8744 15.6081H68.5937L68.5137 14.9678C68.1935 15.368 67.6333 15.6881 66.8329 15.6881C65.7123 15.6881 65.072 14.8877 65.072 14.0073C65.072 12.5666 66.3526 11.8462 68.3536 11.9263V11.8462C68.3536 11.446 68.1935 10.8858 67.2331 10.8858C66.6728 10.8858 66.1125 11.0458 65.7123 11.286L65.4722 10.4055C65.8724 10.1654 66.5928 9.92529 67.4732 9.92529C69.2341 9.92529 69.7943 11.0458 69.7943 12.3265V14.2474ZM68.4337 12.8067C67.4732 12.8067 66.5127 12.9668 66.5127 13.8472C66.5127 14.4075 66.8329 14.6476 67.3131 14.6476C67.8734 14.6476 68.2736 14.2474 68.4337 13.8472C68.4337 13.7672 68.4337 13.6071 68.4337 13.5271V12.8067Z" fill="white"/>
<path d="M72.5157 9.20532C72.0355 9.20532 71.7153 8.88516 71.7153 8.48496C71.7153 8.08477 72.0355 7.68457 72.5157 7.68457C72.996 7.68457 73.3161 8.00473 73.3161 8.48496C73.3161 8.80512 72.996 9.20532 72.5157 9.20532ZM71.7954 15.5284V9.92567H73.2361V15.5284H71.7954Z" fill="white"/>
<path d="M75.2369 7.36426H76.6776V15.5283H75.2369V7.36426Z" fill="white"/>
<path d="M83.0006 14.2474C83.0006 14.7276 83.0006 15.2079 83.0807 15.6081H81.8L81.72 14.9678C81.3998 15.368 80.8396 15.6881 80.0392 15.6881C78.9186 15.6881 78.2783 14.8877 78.2783 14.0073C78.2783 12.5666 79.5589 11.8462 81.5599 11.9263V11.8462C81.5599 11.446 81.3998 10.8858 80.4394 10.8858C79.8791 10.8858 79.3188 11.0458 78.9186 11.286L78.6785 10.4055C79.0787 10.1654 79.7991 9.92529 80.6795 9.92529C82.4404 9.92529 83.0006 11.0458 83.0006 12.3265V14.2474ZM81.64 12.8067C80.6795 12.8067 79.719 12.9668 79.719 13.8472C79.719 14.4075 80.0392 14.6476 80.5194 14.6476C81.0797 14.6476 81.4799 14.2474 81.64 13.8472C81.64 13.7672 81.64 13.6071 81.64 13.5271V12.8067Z" fill="white"/>
<path d="M85.0017 7.36426H86.4424V10.7259C86.7625 10.1656 87.4028 9.84547 88.2032 9.84547C89.5639 9.84547 90.5244 10.966 90.5244 12.6468C90.5244 14.6478 89.2437 15.6883 87.9631 15.6883C87.2428 15.6883 86.6025 15.4482 86.2023 14.7279L86.1222 15.5283H84.9216C84.9216 15.1281 85.0017 14.5678 85.0017 13.9275V7.36426ZM86.4424 13.2872C86.4424 13.3672 86.4424 13.5273 86.4424 13.6073C86.6025 14.1676 87.0827 14.5678 87.723 14.5678C88.6034 14.5678 89.1637 13.8474 89.1637 12.7269C89.1637 11.7664 88.6835 10.966 87.723 10.966C87.1627 10.966 86.6025 11.3662 86.4424 12.0065C86.4424 12.0866 86.3623 12.2466 86.3623 12.4067V13.2872H86.4424Z" fill="white"/>
<path d="M92.2051 7.36426H93.6458V15.5283H92.2051V7.36426Z" fill="white"/>
<path d="M96.6874 13.1268C96.6874 14.1673 97.4878 14.5675 98.4482 14.5675C99.0885 14.5675 99.5688 14.4874 99.969 14.3274L100.209 15.2878C99.7289 15.528 99.0885 15.608 98.2882 15.608C96.4473 15.608 95.4067 14.4874 95.4067 12.8066C95.4067 11.2859 96.3672 9.76514 98.1281 9.76514C99.969 9.76514 100.529 11.2859 100.529 12.4865C100.529 12.7266 100.529 12.9667 100.449 13.0467H96.6874V13.1268ZM99.1686 12.1663C99.1686 11.6861 98.9285 10.8056 98.048 10.8056C97.1676 10.8056 96.8474 11.606 96.7674 12.1663H99.1686Z" fill="white"/>
<path d="M107.493 15.6881C105.892 15.6881 104.691 14.6476 104.691 12.8067C104.691 10.9658 105.892 9.84521 107.573 9.84521C109.254 9.84521 110.374 11.0458 110.374 12.7266C110.294 14.8076 108.853 15.6881 107.493 15.6881ZM107.493 14.6476C108.293 14.6476 108.853 13.8472 108.853 12.7266C108.853 11.8462 108.453 10.8057 107.493 10.8057C106.532 10.8057 106.052 11.7662 106.052 12.7266C106.132 13.8472 106.612 14.6476 107.493 14.6476Z" fill="white"/>
<path d="M111.975 11.606C111.975 10.9657 111.975 10.4054 111.895 9.92521H113.095L113.175 10.7256C113.415 10.3254 114.056 9.76514 114.936 9.76514C115.897 9.76514 116.937 10.4054 116.937 12.1663V15.528H115.497V12.4064C115.497 11.606 115.176 10.9657 114.456 10.9657C113.896 10.9657 113.496 11.3659 113.335 11.7661C113.255 11.8462 113.255 12.0863 113.255 12.2464V15.528H111.815V11.606H111.975Z" fill="white"/>
<path d="M123.58 8.56494V10.0056H124.941V11.0462H123.58V13.5274C123.58 14.2477 123.741 14.5679 124.301 14.5679C124.541 14.5679 124.701 14.5679 124.861 14.4878V15.5283C124.621 15.6084 124.301 15.6884 123.821 15.6884C123.26 15.6884 122.86 15.5283 122.62 15.2082C122.3 14.888 122.14 14.4078 122.14 13.6074V10.9661H121.339V9.92561H122.14V8.8851L123.58 8.56494Z" fill="white"/>
<path d="M126.462 7.36426H127.903V10.7259C128.063 10.4858 128.303 10.2457 128.623 10.0856C128.943 9.92551 129.263 9.84547 129.583 9.84547C130.544 9.84547 131.504 10.4858 131.504 12.2466V15.5283H130.064V12.4067C130.064 11.6063 129.744 10.966 129.023 10.966C128.463 10.966 128.063 11.3662 127.903 11.7664C127.823 11.9265 127.823 12.0065 127.823 12.1666V15.5283H126.462V7.36426Z" fill="white"/>
<path d="M134.546 13.1268C134.546 14.1673 135.346 14.5675 136.307 14.5675C136.947 14.5675 137.427 14.4874 137.827 14.3274L138.068 15.2878C137.587 15.528 136.947 15.608 136.147 15.608C134.306 15.608 133.265 14.4874 133.265 12.8066C133.265 11.2859 134.226 9.76514 135.987 9.76514C137.827 9.76514 138.388 11.2859 138.388 12.4865C138.388 12.7266 138.388 12.9667 138.308 13.0467H134.546V13.1268ZM137.027 12.1663C137.027 11.6861 136.787 10.8056 135.907 10.8056C135.026 10.8056 134.706 11.606 134.626 12.1663H137.027Z" fill="white"/>
<path d="M35.6975 23.0519C35.6975 19.21 38.819 17.3691 38.9791 17.2891C37.2183 14.6478 34.4169 14.3276 33.4564 14.2476C31.1353 14.0075 28.8141 15.6883 27.6936 15.6883C26.493 15.6883 24.6521 14.3276 22.6511 14.3276C20.0899 14.4077 17.6887 15.8484 16.4081 18.0895C13.6867 22.7318 15.6877 29.6151 18.329 33.377C19.6096 35.2179 21.1304 37.2989 23.1314 37.2188C25.0523 37.1388 25.7727 36.0182 28.0938 36.0182C30.4149 36.0182 31.0552 37.2188 33.0562 37.2188C35.1372 37.2188 36.4179 35.3779 37.6985 33.537C39.2192 31.456 39.7795 29.375 39.7795 29.2149C39.7795 29.2149 35.7775 27.6942 35.6975 23.0519Z" fill="white"/>
<path d="M31.9356 11.8463C32.9761 10.5656 33.6964 8.80477 33.4563 6.96387C31.9356 7.04391 30.0947 8.00438 28.9741 9.285C28.0137 10.4056 27.1332 12.2465 27.3734 13.9273C29.1342 14.0874 30.815 13.0468 31.9356 11.8463Z" fill="white"/>
<path d="M63.6311 36.9782H60.9097L59.469 32.3359H54.3465L52.9058 36.9782H50.2645L55.307 21.2104H58.4285L63.6311 36.9782ZM59.0688 30.415L57.7082 26.333C57.5481 25.9328 57.308 24.8922 56.9078 23.3715H56.8277C56.6677 24.0118 56.4275 25.0523 56.1074 26.333L54.8268 30.415H59.0688Z" fill="white"/>
<path d="M76.6774 31.1354C76.6774 33.0563 76.1171 34.5771 75.0766 35.6976C74.1161 36.6581 72.9956 37.2184 71.5549 37.2184C70.0341 37.2184 68.9936 36.6581 68.3533 35.6176H68.2733V41.6205H65.712V29.2945C65.712 28.0939 65.712 26.8133 65.632 25.5326H67.8731L68.0331 27.3735H68.1132C68.9936 26.0129 70.2742 25.3726 71.9551 25.3726C73.3157 25.3726 74.4363 25.9328 75.3167 26.9733C76.2772 28.0139 76.6774 29.3745 76.6774 31.1354ZM74.1161 31.2154C74.1161 30.0949 73.876 29.2144 73.3958 28.4941C72.8355 27.7737 72.1151 27.3735 71.2347 27.3735C70.5944 27.3735 70.0341 27.6137 69.5539 28.0138C69.0736 28.414 68.7535 28.9743 68.5934 29.6146C68.5134 29.9348 68.5134 30.1749 68.5134 30.415V32.336C68.5134 33.1364 68.7535 33.8567 69.2337 34.417C69.714 34.9773 70.4343 35.2974 71.2347 35.2974C72.1952 35.2974 72.9155 34.8972 73.4758 34.1769C73.876 33.3765 74.1161 32.416 74.1161 31.2154Z" fill="white"/>
<path d="M89.8041 31.1354C89.8041 33.0563 89.2438 34.5771 88.2033 35.6976C87.2428 36.6581 86.1223 37.2184 84.6816 37.2184C83.1608 37.2184 82.1203 36.6581 81.48 35.6176H81.4V41.6205H78.8387V29.2945C78.8387 28.0939 78.8387 26.8133 78.7587 25.5326H80.9998L81.1598 27.3735H81.2399C82.0403 26.0129 83.3209 25.3726 85.0818 25.3726C86.4424 25.3726 87.563 25.9328 88.4434 26.9733C89.3238 28.0139 89.8041 29.3745 89.8041 31.1354ZM87.1628 31.2154C87.1628 30.0949 86.9227 29.2144 86.4424 28.4941C85.8822 27.7737 85.1618 27.3735 84.2814 27.3735C83.6411 27.3735 83.0808 27.6137 82.6005 28.0138C82.1203 28.414 81.8002 28.9743 81.6401 29.6146C81.56 29.9348 81.56 30.1749 81.56 30.415V32.336C81.56 33.1364 81.8002 33.8567 82.2804 34.417C82.7606 34.9773 83.481 35.2974 84.2814 35.2974C85.2418 35.2974 85.9622 34.8972 86.5225 34.1769C86.9227 33.3765 87.1628 32.416 87.1628 31.2154Z" fill="white"/>
<path d="M104.371 32.5764C104.371 33.937 103.891 34.9776 102.93 35.858C101.89 36.8185 100.449 37.2187 98.6081 37.2187C96.9273 37.2187 95.5666 36.8985 94.5261 36.2582L95.0864 34.1772C96.2069 34.8175 97.4075 35.2177 98.7682 35.2177C99.7287 35.2177 100.449 34.9776 101.009 34.5774C101.57 34.1772 101.81 33.5369 101.81 32.8165C101.81 32.1762 101.57 31.6159 101.169 31.2157C100.769 30.8155 99.9688 30.3353 99.0083 30.0151C96.287 28.9746 94.8463 27.4539 94.8463 25.4529C94.8463 24.1723 95.3265 23.1318 96.287 22.2513C97.2475 21.4509 98.5281 20.9707 100.129 20.9707C101.57 20.9707 102.77 21.2108 103.731 21.6911L103.09 23.7721C102.21 23.2918 101.169 23.0517 100.049 23.0517C99.1684 23.0517 98.448 23.2918 97.9678 23.692C97.5676 24.0922 97.3275 24.5725 97.3275 25.1327C97.3275 25.7731 97.5676 26.2533 98.0478 26.6535C98.448 27.0537 99.2484 27.4539 100.369 27.8541C101.73 28.4143 102.69 29.0547 103.33 29.775C104.051 30.5754 104.371 31.4558 104.371 32.5764Z" fill="white"/>
<path d="M112.775 27.4538H109.974V32.9765C109.974 34.4172 110.454 35.0575 111.415 35.0575C111.895 35.0575 112.215 35.0575 112.535 34.9775L112.615 36.8984C112.135 37.0585 111.495 37.1385 110.614 37.1385C109.654 37.1385 108.853 36.8184 108.293 36.2581C107.733 35.6178 107.413 34.6573 107.413 33.2166V27.4538H105.732V25.5329H107.413V23.5319L109.894 22.8115V25.6129H112.695V27.4538H112.775Z" fill="white"/>
<path d="M125.341 31.2155C125.341 32.9763 124.861 34.417 123.82 35.5376C122.78 36.6581 121.419 37.2984 119.658 37.2984C117.978 37.2984 116.697 36.7382 115.656 35.6176C114.696 34.4971 114.136 33.1364 114.136 31.4556C114.136 29.6947 114.616 28.254 115.656 27.1335C116.697 26.0129 118.058 25.4526 119.819 25.4526C121.499 25.4526 122.86 26.0129 123.82 27.1335C124.861 28.0939 125.341 29.4546 125.341 31.2155ZM122.7 31.2955C122.7 30.255 122.46 29.3746 122.06 28.5742C121.499 27.6937 120.779 27.2135 119.819 27.2135C118.778 27.2135 118.058 27.6937 117.497 28.5742C117.017 29.2945 116.857 30.255 116.857 31.2955C116.857 32.336 117.097 33.2164 117.497 34.0168C118.058 34.8973 118.778 35.3775 119.819 35.3775C120.779 35.3775 121.579 34.8973 122.06 34.0168C122.46 33.2164 122.7 32.336 122.7 31.2955Z" fill="white"/>
<path d="M133.505 27.7737C133.265 27.6937 133.025 27.6937 132.705 27.6937C131.824 27.6937 131.104 28.0138 130.624 28.7342C130.224 29.2944 129.984 30.0948 129.984 30.9753V36.9782H127.422V29.2144C127.422 27.9338 127.422 26.7332 127.342 25.6126H129.503L129.583 27.7737H129.663C129.904 27.0533 130.384 26.413 130.944 25.9328C131.504 25.5326 132.145 25.2925 132.785 25.2925C133.025 25.2925 133.265 25.2925 133.425 25.3725V27.7737H133.505Z" fill="white"/>
<path d="M144.791 30.7351C144.791 31.2154 144.791 31.5355 144.711 31.8557H137.107C137.107 32.9762 137.507 33.8567 138.227 34.4169C138.868 34.9772 139.668 35.2173 140.709 35.2173C141.829 35.2173 142.87 35.0573 143.75 34.6571L144.15 36.4179C143.11 36.8982 141.829 37.1383 140.309 37.1383C138.548 37.1383 137.187 36.658 136.146 35.6175C135.106 34.577 134.626 33.2164 134.626 31.4555C134.626 29.7747 135.106 28.334 136.066 27.1334C137.027 25.9328 138.388 25.2925 140.068 25.2925C141.669 25.2925 142.95 25.9328 143.83 27.1334C144.471 28.0939 144.791 29.2944 144.791 30.7351ZM142.39 30.0948C142.39 29.3745 142.229 28.7342 141.909 28.1739C141.509 27.4535 140.789 27.1334 139.908 27.1334C139.108 27.1334 138.388 27.4535 137.907 28.1739C137.507 28.7342 137.267 29.3745 137.187 30.1749H142.39V30.0948Z" fill="white"/>
</svg>
