<?xml version="1.0" encoding="utf-8"?>
<!-- Generator: Adobe Illustrator 24.1.2, SVG Export Plug-In . SVG Version: 6.00 Build 0)  -->
<svg version="1.1" xmlns="http://www.w3.org/2000/svg" xmlns:xlink="http://www.w3.org/1999/xlink" x="0px" y="0px"
	 viewBox="0 0 200 60" style="enable-background:new 0 0 200 60;" xml:space="preserve">
<style type="text/css">
	.st0{display:none;}
	.st1{display:inline;fill:#18FF83;}
	.st2{display:inline;}
	.st3{fill:#020A0A;}
	.st4{fill:#B1B1B1;}
	.st5{fill:#FFFFFF;}
	.st6{fill:#70C8F2;}
	.st7{fill:url(#SVGID_1_);}
	.st8{fill:url(#SVGID_2_);}
	.st9{fill:url(#SVGID_3_);}
</style>
<g id="Layer_3" class="st0">
	<rect class="st1" width="200" height="60"/>
</g>
<g id="Layer_1" class="st0">
	<g class="st2">
		<g>
			<path class="st3" d="M192.5,58.7H7.5c-3.7,0-6.8-3-6.8-6.8V8.1c0-3.7,3-6.8,6.8-6.8h184.9c3.7,0,6.8,3,6.8,6.8v43.8
				C199.3,55.7,196.2,58.7,192.5,58.7z"/>
			<path class="st4" d="M192.5,59.4H7.5c-4.2,0-7.5-3.4-7.5-7.5V8.1c0-4.2,3.4-7.5,7.5-7.5h184.9c4.2,0,7.5,3.4,7.5,7.5v43.8
				C200,56.1,196.6,59.4,192.5,59.4z M7.5,2.1c-3.3,0-6,2.7-6,6v43.8c0,3.3,2.7,6,6,6h184.9c3.3,0,6-2.7,6-6V8.1c0-3.3-2.7-6-6-6
				H7.5z"/>
		</g>
		<g>
			<path class="st5" d="M66.6,17.3L65.8,20h-1.8l3.1-9.7h2.3l3.1,9.7h-1.9l-0.9-2.7H66.6z M69.4,16l-0.8-2.4
				c-0.2-0.6-0.3-1.2-0.5-1.8h0c-0.1,0.6-0.3,1.2-0.5,1.8L66.9,16H69.4z"/>
			<path class="st5" d="M75.1,13.1l1.1,3.5c0.2,0.6,0.3,1.2,0.5,1.8h0c0.1-0.6,0.3-1.1,0.5-1.8l1.1-3.5h1.9l-2.7,7h-1.7l-2.6-7H75.1
				z"/>
			<path class="st5" d="M87.2,18.4c0,0.6,0,1.2,0.1,1.7h-1.6l-0.1-0.8h0c-0.4,0.5-1.1,0.9-2.1,0.9c-1.4,0-2.2-1-2.2-2.1
				c0-1.8,1.6-2.7,4.1-2.6v-0.1c0-0.5-0.2-1.2-1.4-1.2c-0.7,0-1.4,0.2-1.9,0.5l-0.3-1.1c0.5-0.3,1.4-0.6,2.5-0.6
				c2.2,0,2.9,1.4,2.9,3V18.4z M85.5,16.6c-1.2,0-2.4,0.2-2.4,1.3c0,0.7,0.4,1,1,1c0.7,0,1.2-0.5,1.4-1c0-0.1,0-0.3,0-0.4V16.6z"/>
			<path class="st5" d="M90.6,12.1c-0.6,0-1-0.4-1-0.9c0-0.5,0.4-1,1-1c0.6,0,1,0.4,1,1C91.6,11.6,91.2,12.1,90.6,12.1L90.6,12.1z
				 M89.7,20v-7h1.8v7H89.7z"/>
			<path class="st5" d="M94,9.8h1.8V20H94V9.8z"/>
			<path class="st5" d="M103.7,18.4c0,0.6,0,1.2,0.1,1.7h-1.6l-0.1-0.8h0c-0.4,0.5-1.1,0.9-2.1,0.9c-1.4,0-2.2-1-2.2-2.1
				c0-1.8,1.6-2.7,4.1-2.6v-0.1c0-0.5-0.2-1.2-1.4-1.2c-0.7,0-1.4,0.2-1.9,0.5l-0.3-1.1c0.5-0.3,1.4-0.6,2.5-0.6
				c2.2,0,2.9,1.4,2.9,3V18.4z M102,16.6c-1.2,0-2.4,0.2-2.4,1.3c0,0.7,0.4,1,1,1c0.7,0,1.2-0.5,1.4-1c0-0.1,0-0.3,0-0.4V16.6z"/>
			<path class="st5" d="M106.2,9.8h1.8V14h0c0.4-0.7,1.2-1.1,2.2-1.1c1.7,0,2.9,1.4,2.9,3.5c0,2.5-1.6,3.8-3.2,3.8
				c-0.9,0-1.7-0.3-2.2-1.2h0l-0.1,1h-1.5c0-0.5,0.1-1.2,0.1-2V9.8z M108,17.2c0,0.1,0,0.3,0,0.4c0.2,0.7,0.8,1.2,1.6,1.2
				c1.1,0,1.8-0.9,1.8-2.3c0-1.2-0.6-2.2-1.8-2.2c-0.7,0-1.4,0.5-1.6,1.3c0,0.1-0.1,0.3-0.1,0.5V17.2z"/>
			<path class="st5" d="M115.2,9.8h1.8V20h-1.8V9.8z"/>
			<path class="st5" d="M120.8,17c0,1.3,1,1.8,2.2,1.8c0.8,0,1.4-0.1,1.9-0.3l0.3,1.2c-0.6,0.3-1.4,0.4-2.4,0.4
				c-2.3,0-3.6-1.4-3.6-3.5c0-1.9,1.2-3.8,3.4-3.8c2.3,0,3,1.9,3,3.4c0,0.3,0,0.6-0.1,0.7H120.8z M123.9,15.8c0-0.6-0.3-1.7-1.4-1.7
				c-1.1,0-1.5,1-1.6,1.7H123.9z"/>
			<path class="st5" d="M134.3,20.2c-2,0-3.5-1.3-3.5-3.6c0-2.3,1.5-3.7,3.6-3.7c2.1,0,3.5,1.5,3.5,3.6
				C137.8,19.1,136,20.2,134.3,20.2L134.3,20.2z M134.3,18.9c1,0,1.7-1,1.7-2.4c0-1.1-0.5-2.4-1.7-2.4c-1.2,0-1.8,1.2-1.8,2.4
				C132.6,17.9,133.2,18.9,134.3,18.9L134.3,18.9z"/>
			<path class="st5" d="M139.9,15.1c0-0.8,0-1.5-0.1-2.1h1.5l0.1,1h0c0.3-0.5,1.1-1.2,2.2-1.2c1.2,0,2.5,0.8,2.5,3V20h-1.8v-3.9
				c0-1-0.4-1.8-1.3-1.8c-0.7,0-1.2,0.5-1.4,1c-0.1,0.1-0.1,0.4-0.1,0.6V20h-1.8V15.1z"/>
			<path class="st5" d="M154.4,11.3v1.8h1.7v1.3h-1.7v3.1c0,0.9,0.2,1.3,0.9,1.3c0.3,0,0.5,0,0.7-0.1l0,1.3
				c-0.3,0.1-0.7,0.2-1.3,0.2c-0.7,0-1.2-0.2-1.5-0.6c-0.4-0.4-0.6-1-0.6-2v-3.3h-1v-1.3h1v-1.3L154.4,11.3z"/>
			<path class="st5" d="M158,9.8h1.8V14h0c0.2-0.3,0.5-0.6,0.9-0.8c0.4-0.2,0.8-0.3,1.2-0.3c1.2,0,2.4,0.8,2.4,3V20h-1.8v-3.9
				c0-1-0.4-1.8-1.3-1.8c-0.7,0-1.2,0.5-1.4,1c-0.1,0.2-0.1,0.3-0.1,0.5V20H158V9.8z"/>
			<path class="st5" d="M168.1,17c0,1.3,1,1.8,2.2,1.8c0.8,0,1.4-0.1,1.9-0.3l0.3,1.2c-0.6,0.3-1.4,0.4-2.4,0.4
				c-2.3,0-3.6-1.4-3.6-3.5c0-1.9,1.2-3.8,3.4-3.8c2.3,0,3,1.9,3,3.4c0,0.3,0,0.6-0.1,0.7H168.1z M171.2,15.8c0-0.6-0.3-1.7-1.4-1.7
				c-1.1,0-1.5,1-1.6,1.7H171.2z"/>
		</g>
		<g>
			<g>
				<path class="st5" d="M44.6,29.4c0-4.8,3.9-7.1,4.1-7.2c-2.2-3.3-5.7-3.7-6.9-3.8c-2.9-0.3-5.8,1.8-7.2,1.8
					c-1.5,0-3.8-1.7-6.3-1.7c-3.2,0.1-6.2,1.9-7.8,4.7c-3.4,5.8-0.9,14.4,2.4,19.1c1.6,2.3,3.5,4.9,6,4.8c2.4-0.1,3.3-1.5,6.2-1.5
					c2.9,0,3.7,1.5,6.2,1.5c2.6,0,4.2-2.3,5.8-4.6c1.9-2.6,2.6-5.2,2.6-5.4C49.7,37.1,44.7,35.2,44.6,29.4"/>
				<path class="st5" d="M39.9,15.4c1.3-1.6,2.2-3.8,1.9-6.1c-1.9,0.1-4.2,1.3-5.6,2.9c-1.2,1.4-2.3,3.7-2,5.8
					C36.4,18.2,38.5,16.9,39.9,15.4"/>
			</g>
			<g>
				<path class="st5" d="M79.5,46.8h-3.4L74.3,41h-6.4l-1.8,5.8h-3.3l6.3-19.7h3.9L79.5,46.8z M73.8,38.6l-1.7-5.1
					c-0.2-0.5-0.5-1.8-1-3.7H71c-0.2,0.8-0.5,2.1-0.9,3.7l-1.6,5.1H73.8z"/>
				<path class="st5" d="M95.8,39.5c0,2.4-0.7,4.3-2,5.7c-1.2,1.2-2.6,1.9-4.4,1.9c-1.9,0-3.2-0.7-4-2h-0.1v7.5h-3.2V37.2
					c0-1.5,0-3.1-0.1-4.7h2.8l0.2,2.3h0.1c1.1-1.7,2.7-2.5,4.8-2.5c1.7,0,3.1,0.7,4.2,2C95.3,35.6,95.8,37.3,95.8,39.5 M92.6,39.6
					c0-1.4-0.3-2.5-0.9-3.4c-0.7-0.9-1.6-1.4-2.7-1.4c-0.8,0-1.5,0.3-2.1,0.8c-0.6,0.5-1,1.2-1.2,2c-0.1,0.4-0.1,0.7-0.1,1v2.4
					c0,1,0.3,1.9,0.9,2.6c0.6,0.7,1.5,1.1,2.5,1.1c1.2,0,2.1-0.5,2.8-1.4C92.3,42.3,92.6,41.1,92.6,39.6"/>
				<path class="st5" d="M112.2,39.5c0,2.4-0.7,4.3-2,5.7c-1.2,1.2-2.6,1.9-4.4,1.9c-1.9,0-3.2-0.7-4-2h-0.1v7.5h-3.2V37.2
					c0-1.5,0-3.1-0.1-4.7h2.8l0.2,2.3h0.1c1-1.7,2.6-2.5,4.8-2.5c1.7,0,3.1,0.7,4.2,2C111.6,35.6,112.2,37.3,112.2,39.5 M108.9,39.6
					c0-1.4-0.3-2.5-0.9-3.4c-0.7-0.9-1.6-1.4-2.7-1.4c-0.8,0-1.5,0.3-2.1,0.8c-0.6,0.5-1,1.2-1.2,2c-0.1,0.4-0.1,0.7-0.1,1v2.4
					c0,1,0.3,1.9,0.9,2.6c0.6,0.7,1.5,1.1,2.5,1.1c1.2,0,2.1-0.5,2.8-1.4C108.6,42.3,108.9,41.1,108.9,39.6"/>
				<path class="st5" d="M130.4,41.3c0,1.7-0.6,3-1.8,4.1c-1.3,1.2-3.1,1.7-5.4,1.7c-2.1,0-3.8-0.4-5.1-1.2l0.7-2.6
					c1.4,0.8,2.9,1.3,4.6,1.3c1.2,0,2.1-0.3,2.8-0.8c0.7-0.5,1-1.3,1-2.2c0-0.8-0.3-1.5-0.8-2c-0.5-0.5-1.5-1.1-2.7-1.5
					c-3.4-1.3-5.2-3.2-5.2-5.7c0-1.6,0.6-2.9,1.8-4c1.2-1,2.8-1.6,4.8-1.6c1.8,0,3.3,0.3,4.5,0.9l-0.8,2.6c-1.1-0.6-2.4-0.9-3.8-0.9
					c-1.1,0-2,0.3-2.6,0.8c-0.5,0.5-0.8,1.1-0.8,1.8c0,0.8,0.3,1.4,0.9,1.9c0.5,0.5,1.5,1,2.9,1.5c1.7,0.7,2.9,1.5,3.7,2.4
					C130,38.8,130.4,39.9,130.4,41.3"/>
				<path class="st5" d="M140.9,34.9h-3.5v6.9c0,1.8,0.6,2.6,1.8,2.6c0.6,0,1,0,1.4-0.1l0.1,2.4c-0.6,0.2-1.4,0.3-2.5,0.3
					c-1.2,0-2.2-0.4-2.9-1.1c-0.7-0.8-1.1-2-1.1-3.8v-7.2h-2.1v-2.4h2.1V30l3.1-0.9v3.5h3.5V34.9z"/>
				<path class="st5" d="M156.6,39.6c0,2.2-0.6,4-1.9,5.4c-1.3,1.4-3,2.2-5.2,2.2c-2.1,0-3.7-0.7-5-2.1c-1.2-1.4-1.9-3.1-1.9-5.2
					c0-2.2,0.6-4,1.9-5.4c1.3-1.4,3-2.1,5.2-2.1c2.1,0,3.8,0.7,5,2.1C156,35.7,156.6,37.4,156.6,39.6 M153.3,39.7
					c0-1.3-0.3-2.4-0.8-3.4c-0.7-1.1-1.6-1.7-2.8-1.7c-1.3,0-2.2,0.6-2.9,1.7c-0.6,0.9-0.8,2.1-0.8,3.4c0,1.3,0.3,2.4,0.8,3.4
					c0.7,1.1,1.6,1.7,2.9,1.7c1.2,0,2.2-0.6,2.8-1.7C153,42.1,153.3,41,153.3,39.7"/>
				<path class="st5" d="M166.8,35.3c-0.3-0.1-0.6-0.1-1-0.1c-1.1,0-2,0.4-2.6,1.3c-0.5,0.7-0.8,1.7-0.8,2.8v7.5h-3.2l0-9.7
					c0-1.6,0-3.1-0.1-4.5h2.7l0.1,2.7h0.1c0.3-0.9,0.9-1.7,1.6-2.3c0.7-0.5,1.5-0.8,2.3-0.8c0.3,0,0.6,0,0.8,0.1V35.3z"/>
				<path class="st5" d="M180.9,39c0,0.6,0,1-0.1,1.4h-9.5c0,1.4,0.5,2.5,1.4,3.2c0.8,0.7,1.8,1,3.1,1c1.4,0,2.7-0.2,3.8-0.7
					l0.5,2.2c-1.3,0.6-2.9,0.9-4.8,0.9c-2.2,0-3.9-0.6-5.2-1.9c-1.3-1.3-1.9-3-1.9-5.2c0-2.1,0.6-3.9,1.8-5.4c1.2-1.5,2.9-2.3,5-2.3
					c2,0,3.6,0.8,4.7,2.3C180.5,35.7,180.9,37.2,180.9,39 M177.9,38.2c0-0.9-0.2-1.7-0.6-2.4c-0.5-0.9-1.4-1.3-2.5-1.3
					c-1,0-1.9,0.4-2.5,1.3c-0.5,0.7-0.8,1.5-0.9,2.5H177.9z"/>
			</g>
		</g>
	</g>
</g>
<g id="Layer_2">
	<g>
		<g>
			<path class="st3" d="M192.5,58.7H7.5c-3.7,0-6.8-3-6.8-6.8V8.1c0-3.7,3-6.8,6.8-6.8h184.9c3.7,0,6.8,3,6.8,6.8v43.8
				C199.3,55.7,196.2,58.7,192.5,58.7z"/>
			<path class="st4" d="M192.5,59.4H7.5c-4.2,0-7.5-3.4-7.5-7.5V8.1c0-4.2,3.4-7.5,7.5-7.5h184.9c4.2,0,7.5,3.4,7.5,7.5v43.8
				C200,56.1,196.6,59.4,192.5,59.4z M7.5,2.1c-3.3,0-6,2.7-6,6v43.8c0,3.3,2.7,6,6,6h184.9c3.3,0,6-2.7,6-6V8.1c0-3.3-2.7-6-6-6
				H7.5z"/>
		</g>
		<g>
			<path class="st5" d="M100.9,32.8c-3.5,0-6.3,2.6-6.3,6.3c0,3.6,2.8,6.3,6.3,6.3c3.5,0,6.3-2.7,6.3-6.3
				C107.2,35.4,104.4,32.8,100.9,32.8z M100.9,42.9c-1.9,0-3.5-1.6-3.5-3.8c0-2.3,1.6-3.8,3.5-3.8c1.9,0,3.5,1.5,3.5,3.8
				C104.4,41.3,102.8,42.9,100.9,42.9z M87.1,32.8c-3.5,0-6.3,2.6-6.3,6.3c0,3.6,2.8,6.3,6.3,6.3c3.5,0,6.3-2.7,6.3-6.3
				C93.4,35.4,90.6,32.8,87.1,32.8z M87.1,42.9c-1.9,0-3.5-1.6-3.5-3.8c0-2.3,1.6-3.8,3.5-3.8c1.9,0,3.5,1.5,3.5,3.8
				C90.7,41.3,89,42.9,87.1,42.9z M70.7,34.7v2.7h6.4c-0.2,1.5-0.7,2.6-1.5,3.4c-0.9,0.9-2.4,2-4.9,2c-3.9,0-7-3.2-7-7.1
				c0-3.9,3.1-7.1,7-7.1c2.1,0,3.7,0.8,4.8,1.9l1.9-1.9c-1.6-1.5-3.7-2.7-6.7-2.7c-5.4,0-9.9,4.4-9.9,9.8c0,5.4,4.5,9.8,9.9,9.8
				c2.9,0,5.1-1,6.8-2.7c1.8-1.8,2.3-4.2,2.3-6.2c0-0.6,0-1.2-0.1-1.7H70.7z M137.7,36.8c-0.5-1.4-2.1-4-5.4-4
				c-3.2,0-5.9,2.5-5.9,6.3c0,3.5,2.7,6.3,6.2,6.3c2.9,0,4.5-1.8,5.2-2.8l-2.1-1.4c-0.7,1-1.7,1.7-3.1,1.7c-1.4,0-2.4-0.6-3-1.9
				l8.4-3.5L137.7,36.8z M129.1,38.9c-0.1-2.4,1.9-3.7,3.3-3.7c1.1,0,2,0.5,2.3,1.3L129.1,38.9z M122.3,45h2.8V26.5h-2.8V45z
				 M117.8,34.2L117.8,34.2c-0.7-0.7-1.9-1.4-3.4-1.4c-3.1,0-6,2.8-6,6.3c0,3.5,2.9,6.3,6,6.3c1.5,0,2.7-0.7,3.3-1.4h0.1v0.9
				c0,2.4-1.3,3.7-3.4,3.7c-1.7,0-2.7-1.2-3.2-2.2l-2.4,1c0.7,1.7,2.5,3.7,5.6,3.7c3.2,0,6-1.9,6-6.5V33.1h-2.6V34.2z M114.6,42.9
				c-1.9,0-3.5-1.6-3.5-3.8c0-2.2,1.6-3.8,3.5-3.8c1.9,0,3.4,1.6,3.4,3.8C118,41.3,116.5,42.9,114.6,42.9z M150.7,26.5h-6.6V45h2.8
				v-7h3.9c3.1,0,6.1-2.2,6.1-5.7S153.7,26.5,150.7,26.5z M150.7,35.4h-3.9V29h3.9c2.1,0,3.2,1.7,3.2,3.2
				C154,33.6,152.8,35.4,150.7,35.4z M167.8,32.7c-2,0-4.1,0.9-4.9,2.8l2.4,1c0.5-1,1.5-1.4,2.5-1.4c1.4,0,2.9,0.9,2.9,2.4v0.2
				c-0.5-0.3-1.6-0.7-2.9-0.7c-2.6,0-5.3,1.5-5.3,4.2c0,2.5,2.2,4.1,4.6,4.1c1.9,0,2.9-0.8,3.5-1.8h0.1v1.4h2.7v-7.1
				C173.4,34.6,170.9,32.7,167.8,32.7z M167.4,42.9c-0.9,0-2.2-0.5-2.2-1.6c0-1.4,1.6-2,2.9-2c1.2,0,1.8,0.3,2.5,0.6
				C170.5,41.6,169,42.9,167.4,42.9z M183.1,33.1l-3.2,8h-0.1l-3.3-8h-3l4.9,11.2l-2.8,6.2h2.9l7.6-17.4H183.1z M158.2,45h2.8V26.5
				h-2.8V45z"/>
			<g>
				<path class="st6" d="M15.6,11.8c-0.4,0.5-0.7,1.2-0.7,2.1v32.7c0,0.9,0.3,1.6,0.7,2.1l0.1,0.1L34,30.4v-0.2V30L15.7,11.7
					L15.6,11.8z"/>
				<linearGradient id="SVGID_1_" gradientUnits="userSpaceOnUse" x1="46.1276" y1="30.1711" x2="10.3896" y2="30.1711">
					<stop  offset="0" style="stop-color:#FFDF00"/>
					<stop  offset="0.415" style="stop-color:#F9BB00"/>
					<stop  offset="0.7778" style="stop-color:#F5A300"/>
					<stop  offset="1" style="stop-color:#F49A00"/>
				</linearGradient>
				<path class="st7" d="M40.1,36.5L34,30.4v-0.2V30l6.1-6.1l0.1,0.1l7.2,4.1c2.1,1.2,2.1,3.1,0,4.3l-7.2,4.1L40.1,36.5z"/>
				<linearGradient id="SVGID_2_" gradientUnits="userSpaceOnUse" x1="36.8531" y1="33.5603" x2="3.2399" y2="67.1735">
					<stop  offset="0" style="stop-color:#E6383C"/>
					<stop  offset="1" style="stop-color:#C70E66"/>
				</linearGradient>
				<path class="st8" d="M40.2,36.4L34,30.2L15.6,48.6c0.7,0.7,1.8,0.8,3.1,0.1L40.2,36.4"/>
				<linearGradient id="SVGID_3_" gradientUnits="userSpaceOnUse" x1="3.0901" y1="-6.9823" x2="30.5344" y2="20.462">
					<stop  offset="0" style="stop-color:#229866"/>
					<stop  offset="0.1459" style="stop-color:#339F64"/>
					<stop  offset="0.5197" style="stop-color:#5BAE5E"/>
					<stop  offset="0.8174" style="stop-color:#73B85B"/>
					<stop  offset="1" style="stop-color:#7CBB5A"/>
				</linearGradient>
				<path class="st9" d="M40.2,23.9L18.7,11.7c-1.3-0.7-2.4-0.6-3.1,0.1L34,30.2L40.2,23.9z"/>
			</g>
		</g>
		<g>
			<path class="st5" d="M67.9,12.8c-0.6-0.5-1.3-0.8-2.1-0.8c-1.8,0-3.2,1.5-3.2,3.3c0,1.8,1.4,3.3,3.2,3.3c1.6,0,2.7-0.9,2.8-2.3
				h-2.5v-1H70c0,3.1-1.6,4.5-4.1,4.5c-2.5,0-4.4-2-4.4-4.5c0-2.5,1.9-4.5,4.4-4.5c1.1,0,2.2,0.4,2.9,1.1L67.9,12.8z"/>
			<path class="st5" d="M76.7,11v1.1h-4v2.8h3.5V16h-3.5v2.6h4.1v1.1h-5.3V11H76.7z"/>
			<path class="st5" d="M84.3,11v1.1h-2.6v7.6h-1.2v-7.6h-2.6V11H84.3z"/>
			<path class="st5" d="M90,11v8.7h-1.2V11H90z"/>
			<path class="st5" d="M98,11v1.1h-2.6v7.6h-1.2v-7.6h-2.6V11H98z"/>
			<path class="st5" d="M106.2,10.9c2.5,0,4.4,2,4.4,4.5c0,2.5-1.9,4.5-4.4,4.5c-2.5,0-4.4-2-4.4-4.5
				C101.8,12.9,103.8,10.9,106.2,10.9z M106.2,18.7c1.8,0,3.2-1.5,3.2-3.3c0-1.8-1.4-3.3-3.2-3.3c-1.8,0-3.2,1.5-3.2,3.3
				C103,17.2,104.4,18.7,106.2,18.7z"/>
			<path class="st5" d="M117.6,19.7l-4-6.6v6.6h-1.2V11h1.2l3.9,6.5V11h1.2v8.7H117.6z"/>
		</g>
	</g>
</g>
</svg>
