<?xml version="1.0" encoding="utf-8"?>
<!-- Generator: Adobe Illustrator 24.1.2, SVG Export Plug-In . SVG Version: 6.00 Build 0)  -->
<svg version="1.1" id="Layer_1" xmlns="http://www.w3.org/2000/svg" xmlns:xlink="http://www.w3.org/1999/xlink" x="0px" y="0px"
	 viewBox="0 0 200 60" style="enable-background:new 0 0 200 60;" xml:space="preserve">
<style type="text/css">
	.st0{fill:#020A0A;}
	.st1{fill:#B1B1B1;}
	.st2{fill:#FFFFFF;}
</style>
<g>
	<g>
		<path class="st0" d="M192.5,58.7H7.5c-3.7,0-6.8-3-6.8-6.8V8.1c0-3.7,3-6.8,6.8-6.8h184.9c3.7,0,6.8,3,6.8,6.8v43.8
			C199.3,55.7,196.2,58.7,192.5,58.7z"/>
		<path class="st1" d="M192.5,59.4H7.5c-4.2,0-7.5-3.4-7.5-7.5V8.1c0-4.2,3.4-7.5,7.5-7.5h184.9c4.2,0,7.5,3.4,7.5,7.5v43.8
			C200,56.1,196.6,59.4,192.5,59.4z M7.5,2.1c-3.3,0-6,2.7-6,6v43.8c0,3.3,2.7,6,6,6h184.9c3.3,0,6-2.7,6-6V8.1c0-3.3-2.7-6-6-6H7.5
			z"/>
	</g>
	<g>
		<path class="st2" d="M66.6,17.3L65.8,20h-1.8l3.1-9.7h2.3l3.1,9.7h-1.9l-0.9-2.7H66.6z M69.4,16l-0.8-2.4
			c-0.2-0.6-0.3-1.2-0.5-1.8h0c-0.1,0.6-0.3,1.2-0.5,1.8L66.9,16H69.4z"/>
		<path class="st2" d="M75.1,13.1l1.1,3.5c0.2,0.6,0.3,1.2,0.5,1.8h0c0.1-0.6,0.3-1.1,0.5-1.8l1.1-3.5h1.9l-2.7,7h-1.7l-2.6-7H75.1z
			"/>
		<path class="st2" d="M87.2,18.4c0,0.6,0,1.2,0.1,1.7h-1.6l-0.1-0.8h0c-0.4,0.5-1.1,0.9-2.1,0.9c-1.4,0-2.2-1-2.2-2.1
			c0-1.8,1.6-2.7,4.1-2.6v-0.1c0-0.5-0.2-1.2-1.4-1.2c-0.7,0-1.4,0.2-1.9,0.5l-0.3-1.1c0.5-0.3,1.4-0.6,2.5-0.6c2.2,0,2.9,1.4,2.9,3
			V18.4z M85.5,16.6c-1.2,0-2.4,0.2-2.4,1.3c0,0.7,0.4,1,1,1c0.7,0,1.2-0.5,1.4-1c0-0.1,0-0.3,0-0.4V16.6z"/>
		<path class="st2" d="M90.6,12.1c-0.6,0-1-0.4-1-0.9c0-0.5,0.4-1,1-1c0.6,0,1,0.4,1,1C91.6,11.6,91.2,12.1,90.6,12.1L90.6,12.1z
			 M89.7,20v-7h1.8v7H89.7z"/>
		<path class="st2" d="M94,9.8h1.8V20H94V9.8z"/>
		<path class="st2" d="M103.7,18.4c0,0.6,0,1.2,0.1,1.7h-1.6l-0.1-0.8h0c-0.4,0.5-1.1,0.9-2.1,0.9c-1.4,0-2.2-1-2.2-2.1
			c0-1.8,1.6-2.7,4.1-2.6v-0.1c0-0.5-0.2-1.2-1.4-1.2c-0.7,0-1.4,0.2-1.9,0.5l-0.3-1.1c0.5-0.3,1.4-0.6,2.5-0.6c2.2,0,2.9,1.4,2.9,3
			V18.4z M102,16.6c-1.2,0-2.4,0.2-2.4,1.3c0,0.7,0.4,1,1,1c0.7,0,1.2-0.5,1.4-1c0-0.1,0-0.3,0-0.4V16.6z"/>
		<path class="st2" d="M106.2,9.8h1.8V14h0c0.4-0.7,1.2-1.1,2.2-1.1c1.7,0,2.9,1.4,2.9,3.5c0,2.5-1.6,3.8-3.2,3.8
			c-0.9,0-1.7-0.3-2.2-1.2h0l-0.1,1h-1.5c0-0.5,0.1-1.2,0.1-2V9.8z M108,17.2c0,0.1,0,0.3,0,0.4c0.2,0.7,0.8,1.2,1.6,1.2
			c1.1,0,1.8-0.9,1.8-2.3c0-1.2-0.6-2.2-1.8-2.2c-0.7,0-1.4,0.5-1.6,1.3c0,0.1-0.1,0.3-0.1,0.5V17.2z"/>
		<path class="st2" d="M115.2,9.8h1.8V20h-1.8V9.8z"/>
		<path class="st2" d="M120.8,17c0,1.3,1,1.8,2.2,1.8c0.8,0,1.4-0.1,1.9-0.3l0.3,1.2c-0.6,0.3-1.4,0.4-2.4,0.4
			c-2.3,0-3.6-1.4-3.6-3.5c0-1.9,1.2-3.8,3.4-3.8c2.3,0,3,1.9,3,3.4c0,0.3,0,0.6-0.1,0.7H120.8z M123.9,15.8c0-0.6-0.3-1.7-1.4-1.7
			c-1.1,0-1.5,1-1.6,1.7H123.9z"/>
		<path class="st2" d="M134.3,20.2c-2,0-3.5-1.3-3.5-3.6c0-2.3,1.5-3.7,3.6-3.7c2.1,0,3.5,1.5,3.5,3.6
			C137.8,19.1,136,20.2,134.3,20.2L134.3,20.2z M134.3,18.9c1,0,1.7-1,1.7-2.4c0-1.1-0.5-2.4-1.7-2.4c-1.2,0-1.8,1.2-1.8,2.4
			C132.6,17.9,133.2,18.9,134.3,18.9L134.3,18.9z"/>
		<path class="st2" d="M139.9,15.1c0-0.8,0-1.5-0.1-2.1h1.5l0.1,1h0c0.3-0.5,1.1-1.2,2.2-1.2c1.2,0,2.5,0.8,2.5,3V20h-1.8v-3.9
			c0-1-0.4-1.8-1.3-1.8c-0.7,0-1.2,0.5-1.4,1c-0.1,0.1-0.1,0.4-0.1,0.6V20h-1.8V15.1z"/>
		<path class="st2" d="M154.4,11.3v1.8h1.7v1.3h-1.7v3.1c0,0.9,0.2,1.3,0.9,1.3c0.3,0,0.5,0,0.7-0.1l0,1.3c-0.3,0.1-0.7,0.2-1.3,0.2
			c-0.7,0-1.2-0.2-1.5-0.6c-0.4-0.4-0.6-1-0.6-2v-3.3h-1v-1.3h1v-1.3L154.4,11.3z"/>
		<path class="st2" d="M158,9.8h1.8V14h0c0.2-0.3,0.5-0.6,0.9-0.8c0.4-0.2,0.8-0.3,1.2-0.3c1.2,0,2.4,0.8,2.4,3V20h-1.8v-3.9
			c0-1-0.4-1.8-1.3-1.8c-0.7,0-1.2,0.5-1.4,1c-0.1,0.2-0.1,0.3-0.1,0.5V20H158V9.8z"/>
		<path class="st2" d="M168.1,17c0,1.3,1,1.8,2.2,1.8c0.8,0,1.4-0.1,1.9-0.3l0.3,1.2c-0.6,0.3-1.4,0.4-2.4,0.4
			c-2.3,0-3.6-1.4-3.6-3.5c0-1.9,1.2-3.8,3.4-3.8c2.3,0,3,1.9,3,3.4c0,0.3,0,0.6-0.1,0.7H168.1z M171.2,15.8c0-0.6-0.3-1.7-1.4-1.7
			c-1.1,0-1.5,1-1.6,1.7H171.2z"/>
	</g>
	<g>
		<g>
			<path class="st2" d="M44.6,29.4c0-4.8,3.9-7.1,4.1-7.2c-2.2-3.3-5.7-3.7-6.9-3.8c-2.9-0.3-5.8,1.8-7.2,1.8
				c-1.5,0-3.8-1.7-6.3-1.7c-3.2,0.1-6.2,1.9-7.8,4.7c-3.4,5.8-0.9,14.4,2.4,19.1c1.6,2.3,3.5,4.9,6,4.8c2.4-0.1,3.3-1.5,6.2-1.5
				c2.9,0,3.7,1.5,6.2,1.5c2.6,0,4.2-2.3,5.8-4.6c1.9-2.6,2.6-5.2,2.6-5.4C49.7,37.1,44.7,35.2,44.6,29.4"/>
			<path class="st2" d="M39.9,15.4c1.3-1.6,2.2-3.8,1.9-6.1c-1.9,0.1-4.2,1.3-5.6,2.9c-1.2,1.4-2.3,3.7-2,5.8
				C36.4,18.2,38.5,16.9,39.9,15.4"/>
		</g>
		<g>
			<path class="st2" d="M79.5,46.8h-3.4L74.3,41h-6.4l-1.8,5.8h-3.3l6.3-19.7h3.9L79.5,46.8z M73.8,38.6l-1.7-5.1
				c-0.2-0.5-0.5-1.8-1-3.7H71c-0.2,0.8-0.5,2.1-0.9,3.7l-1.6,5.1H73.8z"/>
			<path class="st2" d="M95.8,39.5c0,2.4-0.7,4.3-2,5.7c-1.2,1.2-2.6,1.9-4.4,1.9c-1.9,0-3.2-0.7-4-2h-0.1v7.5h-3.2V37.2
				c0-1.5,0-3.1-0.1-4.7h2.8l0.2,2.3h0.1c1.1-1.7,2.7-2.5,4.8-2.5c1.7,0,3.1,0.7,4.2,2C95.3,35.6,95.8,37.3,95.8,39.5 M92.6,39.6
				c0-1.4-0.3-2.5-0.9-3.4c-0.7-0.9-1.6-1.4-2.7-1.4c-0.8,0-1.5,0.3-2.1,0.8c-0.6,0.5-1,1.2-1.2,2c-0.1,0.4-0.1,0.7-0.1,1v2.4
				c0,1,0.3,1.9,0.9,2.6c0.6,0.7,1.5,1.1,2.5,1.1c1.2,0,2.1-0.5,2.8-1.4C92.3,42.3,92.6,41.1,92.6,39.6"/>
			<path class="st2" d="M112.2,39.5c0,2.4-0.7,4.3-2,5.7c-1.2,1.2-2.6,1.9-4.4,1.9c-1.9,0-3.2-0.7-4-2h-0.1v7.5h-3.2V37.2
				c0-1.5,0-3.1-0.1-4.7h2.8l0.2,2.3h0.1c1-1.7,2.6-2.5,4.8-2.5c1.7,0,3.1,0.7,4.2,2C111.6,35.6,112.2,37.3,112.2,39.5 M108.9,39.6
				c0-1.4-0.3-2.5-0.9-3.4c-0.7-0.9-1.6-1.4-2.7-1.4c-0.8,0-1.5,0.3-2.1,0.8c-0.6,0.5-1,1.2-1.2,2c-0.1,0.4-0.1,0.7-0.1,1v2.4
				c0,1,0.3,1.9,0.9,2.6c0.6,0.7,1.5,1.1,2.5,1.1c1.2,0,2.1-0.5,2.8-1.4C108.6,42.3,108.9,41.1,108.9,39.6"/>
			<path class="st2" d="M130.4,41.3c0,1.7-0.6,3-1.8,4.1c-1.3,1.2-3.1,1.7-5.4,1.7c-2.1,0-3.8-0.4-5.1-1.2l0.7-2.6
				c1.4,0.8,2.9,1.3,4.6,1.3c1.2,0,2.1-0.3,2.8-0.8c0.7-0.5,1-1.3,1-2.2c0-0.8-0.3-1.5-0.8-2c-0.5-0.5-1.5-1.1-2.7-1.5
				c-3.4-1.3-5.2-3.2-5.2-5.7c0-1.6,0.6-2.9,1.8-4c1.2-1,2.8-1.6,4.8-1.6c1.8,0,3.3,0.3,4.5,0.9l-0.8,2.6c-1.1-0.6-2.4-0.9-3.8-0.9
				c-1.1,0-2,0.3-2.6,0.8c-0.5,0.5-0.8,1.1-0.8,1.8c0,0.8,0.3,1.4,0.9,1.9c0.5,0.5,1.5,1,2.9,1.5c1.7,0.7,2.9,1.5,3.7,2.4
				C130,38.8,130.4,39.9,130.4,41.3"/>
			<path class="st2" d="M140.9,34.9h-3.5v6.9c0,1.8,0.6,2.6,1.8,2.6c0.6,0,1,0,1.4-0.1l0.1,2.4c-0.6,0.2-1.4,0.3-2.5,0.3
				c-1.2,0-2.2-0.4-2.9-1.1c-0.7-0.8-1.1-2-1.1-3.8v-7.2h-2.1v-2.4h2.1V30l3.1-0.9v3.5h3.5V34.9z"/>
			<path class="st2" d="M156.6,39.6c0,2.2-0.6,4-1.9,5.4c-1.3,1.4-3,2.2-5.2,2.2c-2.1,0-3.7-0.7-5-2.1c-1.2-1.4-1.9-3.1-1.9-5.2
				c0-2.2,0.6-4,1.9-5.4c1.3-1.4,3-2.1,5.2-2.1c2.1,0,3.8,0.7,5,2.1C156,35.7,156.6,37.4,156.6,39.6 M153.3,39.7
				c0-1.3-0.3-2.4-0.8-3.4c-0.7-1.1-1.6-1.7-2.8-1.7c-1.3,0-2.2,0.6-2.9,1.7c-0.6,0.9-0.8,2.1-0.8,3.4c0,1.3,0.3,2.4,0.8,3.4
				c0.7,1.1,1.6,1.7,2.9,1.7c1.2,0,2.2-0.6,2.8-1.7C153,42.1,153.3,41,153.3,39.7"/>
			<path class="st2" d="M166.8,35.3c-0.3-0.1-0.6-0.1-1-0.1c-1.1,0-2,0.4-2.6,1.3c-0.5,0.7-0.8,1.7-0.8,2.8v7.5h-3.2l0-9.7
				c0-1.6,0-3.1-0.1-4.5h2.7l0.1,2.7h0.1c0.3-0.9,0.9-1.7,1.6-2.3c0.7-0.5,1.5-0.8,2.3-0.8c0.3,0,0.6,0,0.8,0.1V35.3z"/>
			<path class="st2" d="M180.9,39c0,0.6,0,1-0.1,1.4h-9.5c0,1.4,0.5,2.5,1.4,3.2c0.8,0.7,1.8,1,3.1,1c1.4,0,2.7-0.2,3.8-0.7l0.5,2.2
				c-1.3,0.6-2.9,0.9-4.8,0.9c-2.2,0-3.9-0.6-5.2-1.9c-1.3-1.3-1.9-3-1.9-5.2c0-2.1,0.6-3.9,1.8-5.4c1.2-1.5,2.9-2.3,5-2.3
				c2,0,3.6,0.8,4.7,2.3C180.5,35.7,180.9,37.2,180.9,39 M177.9,38.2c0-0.9-0.2-1.7-0.6-2.4c-0.5-0.9-1.4-1.3-2.5-1.3
				c-1,0-1.9,0.4-2.5,1.3c-0.5,0.7-0.8,1.5-0.9,2.5H177.9z"/>
		</g>
	</g>
</g>
</svg>
