<?xml version="1.0" encoding="utf-8"?>
<!-- Generator: Adobe Illustrator 24.1.2, SVG Export Plug-In . SVG Version: 6.00 Build 0)  -->
<svg version="1.1" id="Layer_1" xmlns="http://www.w3.org/2000/svg" xmlns:xlink="http://www.w3.org/1999/xlink" x="0px" y="0px"
	 viewBox="0 0 16 16" style="enable-background:new 0 0 16 16;" xml:space="preserve">
<style type="text/css">
	.st0{fill:none;}
</style>
<g id="_x35_._Logos__x26__Icons_x2F_2._Icons_x2F_1._Utility_x2F_Close">
	<path id="Path_5" d="M13.9,2.1c-0.4-0.4-1-0.4-1.4,0L8,6.6L3.5,2.1c-0.4-0.4-1-0.4-1.4,0s-0.4,1,0,1.4L6.6,8l-4.5,4.5
		c-0.4,0.4-0.4,1,0,1.4s1,0.4,1.4,0L8,9.4l4.5,4.5c0.4,0.4,1,0.4,1.4,0s0.4-1,0-1.4L9.4,8l4.5-4.5C14.2,3.2,14.2,2.5,13.9,2.1z"/>
</g>
<rect class="st0" width="16" height="16"/>
</svg>
