<svg width="29" height="28" viewBox="0 0 29 28" fill="none" xmlns="http://www.w3.org/2000/svg">
<path d="M13.4999 0.333252C20.4034 0.333252 25.9999 5.92971 25.9999 12.8333C25.9999 15.1335 25.3744 17.29 24.2889 19.1428L27.4061 22.261C28.6425 23.4977 28.6427 25.5029 27.4061 26.7395C26.2635 27.8821 24.4674 27.9684 23.2235 27.0012L23.1747 26.9622L23.1278 26.9211L23.0175 26.8245L22.9716 26.7834L22.9276 26.7395L19.8094 23.6223C17.9567 24.7077 15.8001 25.3333 13.4999 25.3333C6.59639 25.3332 0.999878 19.7368 0.999878 12.8333C0.999898 5.92976 6.5964 0.333338 13.4999 0.333252ZM24.451 25.4221C24.4798 25.4445 24.5096 25.4653 24.5399 25.4846C24.5098 25.4654 24.4806 25.4444 24.452 25.4221L24.3417 25.3245L24.451 25.4221ZM13.4999 4.66626C8.98967 4.6664 5.33386 8.32301 5.33386 12.8333C5.33387 17.3435 8.98968 21.0001 13.4999 21.0002C18.0102 21.0002 21.6669 17.3436 21.6669 12.8333C21.6669 8.32293 18.0102 4.66626 13.4999 4.66626Z" fill="#121212"/>
</svg>
