<?xml version="1.0" encoding="utf-8"?>
<!-- Generator: Adobe Illustrator 24.1.2, SVG Export Plug-In . SVG Version: 6.00 Build 0)  -->
<svg version="1.1" id="Layer_1" xmlns="http://www.w3.org/2000/svg" xmlns:xlink="http://www.w3.org/1999/xlink" x="0px" y="0px"
	 viewBox="0 0 32 32" style="enable-background:new 0 0 32 32;" xml:space="preserve">
<style type="text/css">
	.st0{fill:none;}
	.st1{fill:#FFFFFF;}
</style>
<rect x="0" class="st0" width="32" height="32"/>
<path class="st1" d="M16,4.6C9.5,4.6,4.2,9.6,4.2,15.6c0,3.6,1.9,6.8,4.7,8.8v4.8c0,0.1,0,0.1,0.1,0.2h0.1h0.1l4.2-3
	c0.8,0.2,1.8,0.3,2.6,0.3c6.5,0,11.8-4.9,11.8-10.9C27.8,9.6,22.5,4.6,16,4.6z M12.5,18.5c1.1,0,2.2-0.7,2.6-1.9h1.8
	c-0.4,2.1-2.3,3.6-4.3,3.6c-2.5,0-4.4-2.1-4.4-4.6s2-4.6,4.4-4.6c2.2,0,3.9,1.5,4.3,3.6h-1.8c-0.4-1-1.3-1.9-2.6-1.9
	c-1.5,0-2.8,1.2-2.8,2.9S11,18.5,12.5,18.5z M23.9,20.3h-1.6v-4.1c0-0.5-0.1-0.8-0.3-1c-0.2-0.2-0.4-0.3-0.8-0.3
	c-0.2,0-0.4,0-0.5,0.1c-0.2,0.1-0.3,0.2-0.4,0.3c-0.1,0.2-0.2,0.3-0.3,0.6c-0.1,0.2-0.1,0.5-0.1,0.8v3.5h-1.6v-9.4h1.6v3.5
	c0.2-0.2,0.4-0.3,0.6-0.5c0.3-0.2,0.7-0.3,1.1-0.3c0.7,0,1.3,0.2,1.8,0.6c0.4,0.4,0.6,1.1,0.6,2C23.9,16.1,23.9,20.3,23.9,20.3z"/>
</svg>
