<svg width="48" height="51" viewBox="0 0 48 51" fill="none" xmlns="http://www.w3.org/2000/svg">
<path d="M24 0C10.7797 0 0 10.2823 0 22.621C0 30.0242 3.86441 36.6048 9.55932 40.7177V50.5887C9.55932 50.7944 9.55932 50.7944 9.76271 51H9.9661H10.1695L18.7119 44.8306C20.339 45.2419 22.3729 45.4476 24 45.4476C37.2203 45.4476 48 35.371 48 23.0323C48 10.2823 37.2203 0 24 0ZM16.8814 28.5847C19.1186 28.5847 21.3559 27.1452 22.1695 24.6774H25.8305C25.017 28.996 21.1525 32.0807 17.0847 32.0807C12 32.0807 8.13559 27.7621 8.13559 22.621C8.13559 17.4798 12.2034 13.1613 17.0847 13.1613C21.5593 13.1613 25.017 16.246 25.8305 20.5645H22.1695C21.3559 18.5081 19.5254 16.6573 16.8814 16.6573C13.8305 16.6573 11.1864 19.125 11.1864 22.621C11.1864 26.1169 13.8305 28.5847 16.8814 28.5847ZM40.0678 32.2863H36.8136V23.8548C36.8136 22.8266 36.6102 22.2097 36.2034 21.7984C35.7966 21.3871 35.3898 21.1815 34.5763 21.1815C34.1695 21.1815 33.7627 21.1815 33.5593 21.3871C33.1525 21.5927 32.9492 21.7984 32.7458 22.004C32.5424 22.4153 32.339 22.621 32.1356 23.2379C31.9322 23.6492 31.9322 24.2661 31.9322 24.8831V32.0807H28.678V12.75H31.9322V19.9476C32.339 19.5363 32.7458 19.3306 33.1525 18.9194C33.7627 18.5081 34.5763 18.3024 35.3898 18.3024C36.8136 18.3024 38.0339 18.7137 39.0509 19.5363C39.8644 20.3589 40.2712 21.7984 40.2712 23.6492C40.0678 23.6492 40.0678 32.2863 40.0678 32.2863Z" fill="#121212"/>
</svg>
