<?xml version="1.0" encoding="utf-8"?>
<!-- Generator: Adobe Illustrator 24.1.2, SVG Export Plug-In . SVG Version: 6.00 Build 0)  -->
<svg version="1.1" id="Layer_1" xmlns="http://www.w3.org/2000/svg" xmlns:xlink="http://www.w3.org/1999/xlink" x="0px" y="0px"
	 viewBox="0 0 16 16" style="enable-background:new 0 0 16 16;" xml:space="preserve">
<style type="text/css">
	.st0{fill-rule:evenodd;clip-rule:evenodd;}
</style>
<path class="st0" d="M1,0C0.45,0,0,0.45,0,1s0.45,1,1,1h14c0.55,0,1-0.45,1-1s-0.45-1-1-1H1z M1,7C0.45,7,0,7.45,0,8s0.45,1,1,1h14
	c0.55,0,1-0.45,1-1s-0.45-1-1-1H1z M0,15c0-0.55,0.45-1,1-1h14c0.55,0,1,0.45,1,1c0,0.55-0.45,1-1,1H1C0.45,16,0,15.55,0,15z"/>
</svg>
